<?xml version="1.0" encoding="UTF-8"?>
<svg id="Layer_1" data-name="Layer 1" xmlns="http://www.w3.org/2000/svg" viewBox="0 0 908 215">
  <defs>
    <style>
      .cls-1 {
        fill: #fff;
      }

      .cls-2 {
        fill: #ffcd11;
      }
    </style>
  </defs>
  <path class="cls-1" d="M212.16,60.3l-5.6,20.37h-73.35c-6.62,0-13.41,5.26-15.11,11.89l-21.05,78.27h-37.35l22.07-82.52c4.24-15.45,20.2-28.01,35.65-28.01h94.74ZM118.1,122.95l17.83-20.21h60.61l-5.43,20.21h-73.01Z"/>
  <polygon class="cls-1" points="263.76 81.01 239.83 170.83 202.3 170.83 226.41 81.01 263.76 81.01"/>
  <polygon class="cls-2" points="273.61 44.17 266.65 70.65 229.13 70.65 236.26 44.17 273.61 44.17"/>
  <path class="cls-1" d="M331.51,44.34l-33.79,126.49h-37.52l33.96-126.49h37.35Z"/>
  <path class="cls-1" d="M512.83,81.01h-37.69l-17.83,20.37h31.41c4.42,0,7.13,3.57,5.78,7.98l-16.3,61.47h37.35l16.81-63.16c4.07-14.77-4.76-26.66-19.53-26.66ZM432.86,81.01h-36.67l-18,20.37h30.57c4.41,0,6.96,3.57,5.77,7.98l-16.3,61.47h37.35l16.81-63.16c4.07-14.77-4.75-26.66-19.53-26.66ZM342.2,81.01l-24.11,89.82h37.52l23.94-89.82h-37.35Z"/>
  <path class="cls-1" d="M658.33,81.01h-97.46l-5.43,20.37h83.53c2.72,0,4.25,2.04,3.57,4.76l-11.89,44.31h-49.74c-2.89,0-4.76-2.38-3.91-5.43l2.21-8.32c.85-3.06,3.9-5.43,6.79-5.43h32.77l14.26-16.13h-65.37c-11.03,0-22.41,9-25.46,20.03l-4.08,15.45c-3.05,11.21,3.57,20.21,14.6,20.21h109.85l16.47-61.47c4.25-15.62-5.09-28.35-20.71-28.35Z"/>
  <path class="cls-1" d="M848.31,81.01h-46.18l-30.36,21.44,17.62,19.91,58.92-41.35ZM784,126.14l-17.65-19.86-.05.03-22.41-25.3h-41.94l38.38,43.46-65.71,46.36h46.01l37.52-26.32,23.26,26.32h41.94l-39.39-44.66.04-.03Z"/>
</svg>